<svg width="48" height="48" viewBox="0 0 48 48" fill="none" xmlns="http://www.w3.org/2000/svg">
<path d="M11.2129 10.3223C13.5324 9.31652 15.5806 10.7875 16.79 12.0547C18.1474 13.4769 19.363 15.5198 20.3584 17.5107C21.3709 19.5359 22.2296 21.6597 22.8359 23.3574C23.1393 24.2069 23.3853 24.966 23.5586 25.5674C23.6448 25.8666 23.7183 26.1438 23.7715 26.3818C23.8118 26.5625 23.8818 26.8937 23.8818 27.2168L23.8662 27.6221C23.7919 28.7564 23.4488 31.1403 22.7031 33.3486C22.2763 34.6128 21.66 35.9973 20.7568 37.0723C19.8827 38.1126 18.5845 39.0215 16.8809 38.9766L16.5352 38.9551C15.1984 38.8214 14.1586 38.0098 13.4189 37.1885C12.6551 36.3403 11.9958 35.2455 11.4307 34.0684C10.2954 31.7036 9.37985 28.6633 8.7832 25.6328C8.18673 22.603 7.88168 19.4479 8.04199 16.8398C8.12179 15.5419 8.32286 14.2827 8.71777 13.2129C9.10132 12.1739 9.77435 11.0344 10.9873 10.4277L11.2129 10.3223Z" stroke="#F99D3B" stroke-width="4"/>
<path d="M36.6693 10.3223C34.3497 9.31652 32.3015 10.7875 31.0921 12.0547C29.7348 13.4769 28.5192 15.5198 27.5237 17.5107C26.5113 19.5359 25.6525 21.6597 25.0462 23.3574C24.7428 24.2069 24.4968 24.966 24.3235 25.5674C24.2374 25.8666 24.1639 26.1438 24.1107 26.3818C24.0703 26.5625 24.0003 26.8937 24.0003 27.2168L24.0159 27.6221C24.0902 28.7564 24.4334 31.1403 25.179 33.3486C25.6059 34.6128 26.2222 35.9973 27.1253 37.0723C27.9994 38.1126 29.2977 39.0215 31.0013 38.9766L31.347 38.9551C32.6838 38.8214 33.7235 38.0098 34.4632 37.1885C35.227 36.3403 35.8863 35.2455 36.4515 34.0684C37.5868 31.7036 38.5023 28.6633 39.0989 25.6328C39.6954 22.603 40.0005 19.4479 39.8401 16.8398C39.7604 15.5419 39.5593 14.2827 39.1644 13.2129C38.7808 12.1739 38.1078 11.0344 36.8948 10.4277L36.6693 10.3223Z" stroke="#F99D3B" stroke-width="4"/>
</svg>
